<svg width="200" height="231" viewBox="0 0 200 231" fill="none" xmlns="http://www.w3.org/2000/svg">
<path d="M196.284 28.3496L143.789 84.2284L147.455 87.7657L200.001 31.8869" fill="black"/>
<path d="M0 31.8869L52.4949 87.7657L56.2118 84.2284L3.7169 28.3496" fill="black"/>
<path d="M136.963 0.0107609L41.3828 15.0596L64.9826 167.009L160.563 151.96L136.963 0.0107609Z" fill="white"/>
<path d="M78.6477 55.8745L73.6172 56.666L74.4034 61.731L79.4339 60.9395L78.6477 55.8745Z" fill="black"/>
<path d="M84.4993 60.124L79.4688 60.916L80.2554 65.981L85.286 65.1889L84.4993 60.124Z" fill="black"/>
<path d="M90.3118 64.4306L85.2812 65.2227L86.0679 70.2876L91.0984 69.4956L90.3118 64.4306Z" fill="black"/>
<path d="M80.2298 66.0239L75.1992 66.8154L75.9854 71.8804L81.0159 71.0889L80.2298 66.0239Z" fill="black"/>
<path d="M88.7298 54.2826L83.6992 55.0747L84.4858 60.1397L89.5164 59.3476L88.7298 54.2826Z" fill="black"/>
<path d="M108.839 51.1059L103.809 51.8975L104.595 56.9624L109.625 56.1709L108.839 51.1059Z" fill="black"/>
<path d="M114.652 55.4115L109.621 56.2036L110.408 61.2686L115.438 60.4765L114.652 55.4115Z" fill="black"/>
<path d="M120.499 59.6626L115.469 60.4541L116.255 65.5191L121.285 64.7276L120.499 59.6626Z" fill="black"/>
<path d="M110.421 61.2553L105.391 62.0474L106.177 67.1124L111.208 66.3203L110.421 61.2553Z" fill="black"/>
<path d="M118.929 49.5639L113.898 50.356L114.685 55.4209L119.716 54.6289L118.929 49.5639Z" fill="black"/>
<path d="M122.857 74.8447L77.582 81.9731L78.3687 87.0381L123.644 79.9097L122.857 74.8447Z" fill="black"/>
<path d="M103.766 160.151L76.882 133.135L37.6254 172.609L27.8494 162.766L24.2344 166.406L37.6254 179.888L76.882 140.363L100.151 163.791L103.766 160.151Z" fill="black"/>
<path d="M124.235 150.975L97.4023 178.043L136.608 217.517L126.832 227.36L130.447 231L143.838 217.517L104.582 178.043L127.85 154.615L124.235 150.975Z" fill="black"/>
</svg>
