<svg width="135" height="215" viewBox="0 0 135 215" fill="none" xmlns="http://www.w3.org/2000/svg">
<path d="M10.3943 74.9941L0 85.3346V153.572H5.12037V87.4846L14.0298 78.5775L10.3943 74.9941Z" fill="black"/>
<path d="M104.814 0H7.52734V153.571H104.814V0Z" fill="white"/>
<path d="M48.4915 153.571H43.3711V215H48.4915V153.571Z" fill="black"/>
<path d="M68.9719 153.571H63.8516V215H68.9719V153.571Z" fill="black"/>
<path d="M98.3125 78.5775L126.782 107.091L98.3125 135.552L101.897 139.187L134.001 107.091L101.897 74.9941L98.3125 78.5775Z" fill="black"/>
<path d="M38.2493 46.0713H33.1289V51.1903H38.2493V46.0713Z" fill="black"/>
<path d="M43.3704 51.1904H38.25V56.3095H43.3704V51.1904Z" fill="black"/>
<path d="M48.4915 56.3096H43.3711V61.4286H48.4915V56.3096Z" fill="black"/>
<path d="M38.2493 56.3096H33.1289V61.4286H38.2493V56.3096Z" fill="black"/>
<path d="M48.4915 46.0713H43.3711V51.1903H48.4915V46.0713Z" fill="black"/>
<path d="M68.9719 46.0713H63.8516V51.1903H68.9719V46.0713Z" fill="black"/>
<path d="M74.093 51.1904H68.9727V56.3095H74.093V51.1904Z" fill="black"/>
<path d="M79.2141 56.3096H74.0938V61.4286H79.2141V56.3096Z" fill="black"/>
<path d="M68.9719 56.3096H63.8516V61.4286H68.9719V56.3096Z" fill="black"/>
<path d="M79.2141 46.0713H74.0938V51.1903H79.2141V46.0713Z" fill="black"/>
<path d="M79.2122 71.667H33.1289V76.786H79.2122V71.667Z" fill="black"/>
<path d="M104.814 63.3223H92.7812V115.946H104.814V63.3223Z" fill="white"/>
</svg>
