<svg width="146" height="268" viewBox="0 0 146 268" fill="none" xmlns="http://www.w3.org/2000/svg">
<path d="M129.827 85.3723L139.787 124.49L100.617 134.45L101.901 139.429L145.998 128.238L134.807 84.0889L129.827 85.3723Z" fill="black"/>
<path d="M10.4212 126.698L0 137.068V205.499H5.13362V139.224L14.0661 130.291L10.4212 126.698Z" fill="black"/>
<path d="M105.238 51.4902H7.69922V205.499H105.238V51.4902Z" fill="white"/>
<path d="M38.5008 97.6929H33.3672V102.826H38.5008V97.6929Z" fill="black"/>
<path d="M43.6375 102.826H38.5039V107.96H43.6375V102.826Z" fill="black"/>
<path d="M48.7703 107.96H43.6367V113.094H48.7703V107.96Z" fill="black"/>
<path d="M38.5008 107.96H33.3672V113.094H38.5008V107.96Z" fill="black"/>
<path d="M48.7703 97.6929H43.6367V102.826H48.7703V97.6929Z" fill="black"/>
<path d="M69.3055 97.6929H64.1719V102.826H69.3055V97.6929Z" fill="black"/>
<path d="M74.4383 102.826H69.3047V107.96H74.4383V102.826Z" fill="black"/>
<path d="M79.5711 107.96H74.4375V113.094H79.5711V107.96Z" fill="black"/>
<path d="M69.3055 107.96H64.1719V113.094H69.3055V107.96Z" fill="black"/>
<path d="M79.5711 97.6929H74.4375V102.826H79.5711V97.6929Z" fill="black"/>
<path d="M79.5697 123.361H33.3672V128.494H79.5697V123.361Z" fill="black"/>
<path d="M48.7703 205.499H43.6367V267.102H48.7703V205.499Z" fill="black"/>
<path d="M69.3055 205.499H64.1719V267.102H69.3055V205.499Z" fill="black"/>
<path d="M51.1854 36.7757L49.2188 41.5176L53.9607 43.4843L55.9273 38.7424L51.1854 36.7757Z" fill="black"/>
<path d="M117.553 64.3079L115.586 69.0498L120.328 71.0165L122.294 66.2746L117.553 64.3079Z" fill="black"/>
<path d="M125.774 17.711L83.1136 0L63.4519 47.4346L53.9547 43.4817L52.0039 48.2046L61.4498 52.1575L104.161 69.8685L113.607 73.77L115.609 69.0471L106.112 65.0942L125.774 17.711Z" fill="black"/>
</svg>
