<svg width="157" height="215" viewBox="0 0 157 215" fill="none" xmlns="http://www.w3.org/2000/svg">
<path d="M126.761 0H29.293V153.571H126.761V0Z" fill="white"/>
<path d="M60.0713 46.0713H54.9414V51.1903H60.0713V46.0713Z" fill="black"/>
<path d="M65.2002 51.1904H60.0703V56.3095H65.2002V51.1904Z" fill="black"/>
<path d="M70.3291 56.3096H65.1992V61.4286H70.3291V56.3096Z" fill="black"/>
<path d="M60.0713 56.3096H54.9414V61.4286H60.0713V56.3096Z" fill="black"/>
<path d="M70.3291 46.0713H65.1992V51.1903H70.3291V46.0713Z" fill="black"/>
<path d="M90.8486 46.0713H85.7188V51.1903H90.8486V46.0713Z" fill="black"/>
<path d="M95.9815 51.1904H90.8516V56.3095H95.9815V51.1904Z" fill="black"/>
<path d="M101.11 56.3096H95.9805V61.4286H101.11V56.3096Z" fill="black"/>
<path d="M90.8486 56.3096H85.7188V61.4286H90.8486V56.3096Z" fill="black"/>
<path d="M101.11 46.0713H95.9805V51.1903H101.11V46.0713Z" fill="black"/>
<path d="M101.11 71.667H54.9414V76.786H101.11V71.667Z" fill="black"/>
<path d="M70.3291 153.571H65.1992V215H70.3291V153.571Z" fill="black"/>
<path d="M90.8486 153.571H85.7188V215H90.8486V153.571Z" fill="black"/>
<path d="M120.246 78.5775L148.768 107.091L120.246 135.552L123.837 139.187L156.001 107.091L123.837 74.9941L120.246 78.5775Z" fill="black"/>
<path d="M32.1644 74.9941L0 107.091L32.1644 139.187L35.8066 135.552L7.23315 107.091L35.8066 78.5775L32.1644 74.9941Z" fill="black"/>
<path d="M41.3482 63.3223H29.293V115.946H41.3482V63.3223Z" fill="white"/>
<path d="M126.758 63.3223H114.703V115.946H126.758V63.3223Z" fill="white"/>
</svg>
