<svg width="134" height="216" viewBox="0 0 134 216" fill="none" xmlns="http://www.w3.org/2000/svg">
<g clip-path="url(#clip0)">
<path d="M10.3943 75.0132L0 85.3563V153.611H5.12037V87.5069L14.0298 78.5974L10.3943 75.0132Z" fill="black"/>
<path d="M104.814 0H7.52734V153.611H104.814V0Z" fill="white"/>
<path d="M79.2122 71.6851H33.1289V76.8054H79.2122V71.6851Z" fill="black"/>
<path d="M48.4915 153.611H43.3711V215.055H48.4915V153.611Z" fill="black"/>
<path d="M68.9719 153.611H63.8516V215.055H68.9719V153.611Z" fill="black"/>
<path d="M98.3125 78.5974L126.782 107.118L98.3125 135.587L101.897 139.223L134.001 107.118L101.897 75.0132L98.3125 78.5974Z" fill="black"/>
<path d="M104.762 71.6851H93.3945V87.251H104.762V71.6851Z" fill="white"/>
<path d="M104.814 35.8428H99.6932H63.8506V37.4301V40.9631H58.7303H53.6099H48.4895V37.4301V35.8428H12.647H7.52662H2.40625V40.9631H7.52662V56.3242H10.0868H12.647V61.4446H15.2072H17.7673V66.565H38.2488V61.4446H40.809H43.3692V56.3242H48.4895V51.2039H53.6099V46.0835H58.7303V51.2039H63.8506V56.3242H68.971V61.4446H71.5312H74.0914V66.565H94.5728V61.4446H97.133H99.6932V56.3242H104.814V46.0835H109.934V40.9631V35.8428H104.814Z" fill="black"/>
<path d="M17.7688 40.9629H12.6484V46.0833H17.7688V40.9629Z" fill="white"/>
<path d="M22.8899 46.0835H17.7695V51.2039H22.8899V46.0835Z" fill="white"/>
<path d="M74.093 40.9629H68.9727V46.0833H74.093V40.9629Z" fill="white"/>
<path d="M79.2141 46.0835H74.0938V51.2039H79.2141V46.0835Z" fill="white"/>
</g>
<defs>
<clipPath id="clip0">
<rect width="134" height="215.055" fill="white"/>
</clipPath>
</defs>
</svg>
