<svg width="155" height="215" viewBox="0 0 155 215" fill="none" xmlns="http://www.w3.org/2000/svg">
<path d="M125.945 0H29.1016V153.571H125.945V0Z" fill="white"/>
<path d="M59.6869 46.0713H54.5898V51.1903H59.6869V46.0713Z" fill="black"/>
<path d="M64.7845 51.1904H59.6875V56.3095H64.7845V51.1904Z" fill="black"/>
<path d="M69.8783 56.3096H64.7812V61.4286H69.8783V56.3096Z" fill="black"/>
<path d="M59.6869 56.3096H54.5898V61.4286H59.6869V56.3096Z" fill="black"/>
<path d="M69.8783 46.0713H64.7812V51.1903H69.8783V46.0713Z" fill="black"/>
<path d="M90.2689 46.0713H85.1719V51.1903H90.2689V46.0713Z" fill="black"/>
<path d="M95.3626 51.1904H90.2656V56.3095H95.3626V51.1904Z" fill="black"/>
<path d="M100.46 56.3096H95.3633V61.4286H100.46V56.3096Z" fill="black"/>
<path d="M90.2689 56.3096H85.1719V61.4286H90.2689V56.3096Z" fill="black"/>
<path d="M100.46 46.0713H95.3633V51.1903H100.46V46.0713Z" fill="black"/>
<path d="M100.463 71.667H54.5898V76.786H100.463V71.667Z" fill="black"/>
<path d="M119.473 27.387L147.812 55.9001L119.473 84.362L123.041 87.9966L154.999 55.9001L123.041 23.8037L119.473 27.387Z" fill="black"/>
<path d="M31.9582 23.8037L0 55.9001L31.9582 87.9966L35.5771 84.362L7.18678 55.9001L35.5771 27.387L31.9582 23.8037Z" fill="black"/>
<path d="M41.0795 63.3223H29.1016V115.946H41.0795V63.3223Z" fill="white"/>
<path d="M125.947 63.3223H113.969V115.946H125.947V63.3223Z" fill="white"/>
<path d="M64.7812 153.571V215H69.8783V153.571" fill="black"/>
<path d="M85.1719 153.571V215H90.2689V153.571" fill="black"/>
</svg>
