<svg width="112" height="214" viewBox="0 0 112 214" fill="none" xmlns="http://www.w3.org/2000/svg">
<path d="M5.09091 152.728V87.0039L11.9636 80.1312L54.0655 130.531L57.9345 127.273L12.32 72.5967L0 84.8658V152.728H5.09091Z" fill="black"/>
<path d="M112.001 152.728V84.8658L99.681 72.5967L54.0664 127.273L57.9355 130.531L100.037 80.1312L106.91 87.0039V152.728H112.001Z" fill="black"/>
<path d="M104.364 0H7.63672V152.727H104.364V0Z" fill="white"/>
<path d="M48.3643 152.728H43.2734V213.818H48.3643V152.728Z" fill="black"/>
<path d="M68.7276 152.728H63.6367V213.818H68.7276V152.728Z" fill="black"/>
<path d="M78.908 71.2725H33.0898V76.3634H78.908V71.2725Z" fill="black"/>
<path d="M63.636 40.7275H58.5451H53.4542H48.3633V45.8184V50.9094H53.4542V45.8184H58.5451V50.9094H63.636V45.8184V40.7275Z" fill="black"/>
<path d="M68.7276 50.9092H63.6367V56.0001H68.7276V50.9092Z" fill="black"/>
<path d="M73.8175 56H68.7266V61.0909H73.8175V56Z" fill="black"/>
<path d="M94.18 61.0908H73.8164V66.1817H94.18V61.0908Z" fill="black"/>
<path d="M99.2745 56H94.1836V61.0909H99.2745V56Z" fill="black"/>
<path d="M104.364 35.6367H99.2731H63.6367V40.7276H99.2731V56.0003H104.364V45.8185H109.455V40.7276V35.6367H104.364Z" fill="black"/>
<path d="M48.3643 50.9092H43.2734V56.0001H48.3643V50.9092Z" fill="black"/>
<path d="M43.2745 56H38.1836V61.0909H43.2745V56Z" fill="black"/>
<path d="M38.18 61.0908H17.8164V66.1817H38.18V61.0908Z" fill="black"/>
<path d="M17.8175 56H12.7266V61.0909H17.8175V56Z" fill="black"/>
<path d="M48.3651 40.7276V35.6367H12.7287H7.63778H2.54688V40.7276H7.63778V56.0003H12.7287V40.7276H48.3651Z" fill="black"/>
</svg>
