<svg width="146" height="215" viewBox="0 0 146 215" fill="none" xmlns="http://www.w3.org/2000/svg">
<path d="M129.827 33.7856L139.787 72.7928L100.617 82.7237L101.901 87.6892L145.998 76.5297L134.807 32.5059L129.827 33.7856Z" fill="black"/>
<path d="M10.4212 74.9941L0 85.3346V153.572H5.13362V87.4846L14.0661 78.5775L10.4212 74.9941Z" fill="black"/>
<path d="M105.238 0H7.69922V153.571H105.238V0Z" fill="white"/>
<path d="M38.5008 46.0713H33.3672V51.1903H38.5008V46.0713Z" fill="black"/>
<path d="M43.6336 51.1904H38.5V56.3095H43.6336V51.1904Z" fill="black"/>
<path d="M48.7703 56.3096H43.6367V61.4286H48.7703V56.3096Z" fill="black"/>
<path d="M38.5008 56.3096H33.3672V61.4286H38.5008V56.3096Z" fill="black"/>
<path d="M48.7703 46.0713H43.6367V51.1903H48.7703V46.0713Z" fill="black"/>
<path d="M69.3055 46.0713H64.1719V51.1903H69.3055V46.0713Z" fill="black"/>
<path d="M74.4383 51.1904H69.3047V56.3095H74.4383V51.1904Z" fill="black"/>
<path d="M79.5711 56.3096H74.4375V61.4286H79.5711V56.3096Z" fill="black"/>
<path d="M69.3055 56.3096H64.1719V61.4286H69.3055V56.3096Z" fill="black"/>
<path d="M79.5711 46.0713H74.4375V51.1903H79.5711V46.0713Z" fill="black"/>
<path d="M79.5697 71.667H33.3672V76.786H79.5697V71.667Z" fill="black"/>
<path d="M48.7703 153.571H43.6367V215H48.7703V153.571Z" fill="black"/>
<path d="M69.3055 153.571H64.1719V215H69.3055V153.571Z" fill="black"/>
</svg>
