<svg width="130" height="155" viewBox="0 0 130 155" fill="none" xmlns="http://www.w3.org/2000/svg">
<path d="M85 15H80V20H85V15Z" fill="black"/>
<path d="M80 10H75V15H80V10Z" fill="black"/>
<path d="M85 5H80V10H85V5Z" fill="black"/>
<path d="M90 0H85V5H90V0Z" fill="black"/>
<path d="M95 5H90V10H95V5Z" fill="black"/>
<path d="M100 10H95V15H100V10Z" fill="black"/>
<path d="M95 15H90V20H95V15Z" fill="black"/>
<path d="M95 30H90V20H85V30H80V35H95V30Z" fill="black"/>
<path d="M80 35H75V40H80V35Z" fill="black"/>
<path d="M75 40H65V45H75V40Z" fill="black"/>
<path d="M65 45H60V50H65V45Z" fill="black"/>
<path d="M60 50H55V60H60V50Z" fill="black"/>
<path d="M55 60H50V65H55V60Z" fill="black"/>
<path d="M60 65H55V75H60V65Z" fill="black"/>
<path d="M65 75H60V80H65V75Z" fill="black"/>
<path d="M70 85V80H65V85H60V90H70V85Z" fill="black"/>
<path d="M60 90H20V95H60V90Z" fill="black"/>
<path d="M20 85H15V90H20V85Z" fill="black"/>
<path d="M15 80H10V85H15V80Z" fill="black"/>
<path d="M10 75H5V80H10V75Z" fill="black"/>
<path d="M15 130V120H10V105H5V80H0V110H5V125H10V135H15V140H20V130H15Z" fill="black"/>
<path d="M25 140H20V145H25V140Z" fill="black"/>
<path d="M40 145H25V150H40V145Z" fill="black"/>
<path d="M105 150H90V145H75V150H40V155H110V150H115V145H105V150Z" fill="black"/>
<path d="M120 140H115V145H120V140Z" fill="black"/>
<path d="M125 135H120V140H125V135Z" fill="black"/>
<path d="M130 115H125V135H130V115Z" fill="black"/>
<path d="M125 105H120V115H125V105Z" fill="black"/>
<path d="M120 95H115V105H120V95Z" fill="black"/>
<path d="M115 90H110V95H115V90Z" fill="black"/>
<path d="M110 85H105V90H110V85Z" fill="black"/>
<path d="M105 80H100V85H105V80Z" fill="black"/>
<path d="M110 75H105V80H110V75Z" fill="black"/>
<path d="M120 70H110V75H120V70Z" fill="black"/>
<path d="M120 60V65V70H130V65H125V60H120Z" fill="black"/>
<path d="M125 55V60H130V50H125H115V55H125Z" fill="black"/>
<path d="M115 45H110V50H115V45Z" fill="black"/>
<path d="M110 40H100V45H110V40Z" fill="black"/>
<path d="M100 35H95V40H100V35Z" fill="black"/>
<path d="M110 120H105V130H110V120Z" fill="black"/>
<path d="M105 130H100V135H105V130Z" fill="black"/>
<path d="M100 135H95V140H100V135Z" fill="black"/>
<path d="M95 140H90V145H95V140Z" fill="black"/>
<path d="M105 50H100V55H105V50Z" fill="black"/>
<path d="M100 55H95V60H100V55Z" fill="black"/>
<path d="M95 60H90V65H95V60Z" fill="black"/>
<path d="M95 50H90V55H95V50Z" fill="black"/>
<path d="M105 60H100V65H105V60Z" fill="black"/>
</svg>
