<svg width="235" height="525" viewBox="0 0 235 525" fill="none" xmlns="http://www.w3.org/2000/svg">
<path d="M4.60784 511.184H0V525H4.60784V511.184Z" fill="black"/>
<path d="M9.21722 497.368H4.60938V511.184H9.21722V497.368Z" fill="black"/>
<path d="M18.4321 469.737H13.8242V483.553H18.4321V469.737Z" fill="black"/>
<path d="M23.0375 455.921H18.4297V469.737H23.0375V455.921Z" fill="black"/>
<path d="M32.2563 428.29H27.6484V442.105H32.2563V428.29Z" fill="black"/>
<path d="M36.8618 414.474H32.2539V428.289H36.8618V414.474Z" fill="black"/>
<path d="M46.0766 386.842H41.4688V400.658H46.0766V386.842Z" fill="black"/>
<path d="M50.686 373.026H46.0781V386.842H50.686V373.026Z" fill="black"/>
<path d="M59.9008 345.395H55.293V359.21H59.9008V345.395Z" fill="black"/>
<path d="M87.5492 262.5H82.9414V276.316H87.5492V262.5Z" fill="black"/>
<path d="M92.1586 248.685H87.5508V262.5H92.1586V248.685Z" fill="black"/>
<path d="M101.373 221.053H96.7656V234.869H101.373V221.053Z" fill="black"/>
<path d="M105.979 207.237H101.371V221.053H105.979V207.237Z" fill="black"/>
<path d="M115.198 179.605H110.59V193.421H115.198V179.605Z" fill="black"/>
<path d="M78.3344 290.132H73.7266V303.948H78.3344V290.132Z" fill="black"/>
<path d="M73.725 303.947H69.1172V317.763H73.725V303.947Z" fill="black"/>
<path d="M64.5102 331.579H59.9023V345.395H64.5102V331.579Z" fill="black"/>
<path d="M119.803 165.79H115.195V179.605H119.803V165.79Z" fill="black"/>
<path d="M129.018 138.158H124.41V151.974H129.018V138.158Z" fill="black"/>
<path d="M133.627 124.342H129.02V138.158H133.627V124.342Z" fill="black"/>
<path d="M142.842 96.7104H138.234V110.526H142.842V96.7104Z" fill="black"/>
<path d="M147.452 82.8945H142.844V96.7103H147.452V82.8945Z" fill="black"/>
<path d="M156.666 55.2632H152.059V69.079H156.666V55.2632Z" fill="black"/>
<path d="M161.276 41.4473H156.668V55.2631H161.276V41.4473Z" fill="black"/>
<path d="M170.491 13.8159H165.883V27.6317H170.491V13.8159Z" fill="black"/>
<path d="M175.1 0H170.492V13.8158H175.1V0Z" fill="black"/>
<path d="M64.5102 511.184H59.9023V525H64.5102V511.184Z" fill="black"/>
<path d="M69.1157 497.368H64.5078V511.184H69.1157V497.368Z" fill="black"/>
<path d="M69.1168 488.158H13.8227V483.553H9.21484V497.369H13.8227V492.763H69.1168V497.369H73.7247V483.553H69.1168V488.158Z" fill="black"/>
<path d="M78.3344 469.737H73.7266V483.553H78.3344V469.737Z" fill="black"/>
<path d="M82.9399 455.921H78.332V469.737H82.9399V455.921Z" fill="black"/>
<path d="M82.941 446.711H27.6469V442.105H23.0391V455.921H27.6469V451.316H82.941V455.921H87.5489V442.105H82.941V446.711Z" fill="black"/>
<path d="M92.1586 428.29H87.5508V442.105H92.1586V428.29Z" fill="black"/>
<path d="M96.7641 414.474H92.1562V428.289H96.7641V414.474Z" fill="black"/>
<path d="M96.7652 405.263H41.4711V400.658H36.8633V414.474H41.4711V409.869H96.7652V414.474H101.373V400.658H96.7652V405.263Z" fill="black"/>
<path d="M105.979 386.842H101.371V400.658H105.979V386.842Z" fill="black"/>
<path d="M110.588 373.026H105.98V386.842H110.588V373.026Z" fill="black"/>
<path d="M110.589 363.816H55.2953V359.21H50.6875V373.026H55.2953V368.421H110.589V373.026H115.197V359.21H110.589V363.816Z" fill="black"/>
<path d="M119.803 345.395H115.195V359.21H119.803V345.395Z" fill="black"/>
<path d="M147.452 262.5H142.844V276.316H147.452V262.5Z" fill="black"/>
<path d="M152.057 248.685H147.449V262.5H152.057V248.685Z" fill="black"/>
<path d="M152.058 239.473H96.7641V234.868H92.1562V248.684H96.7641V244.079H152.058V248.684H156.666V234.868H152.058V239.473Z" fill="black"/>
<path d="M161.276 221.053H156.668V234.869H161.276V221.053Z" fill="black"/>
<path d="M165.881 207.237H161.273V221.053H165.881V207.237Z" fill="black"/>
<path d="M165.882 198.026H110.588V193.421H105.98V207.237H110.588V202.631H165.882V207.237H170.49V193.421H165.882V198.026Z" fill="black"/>
<path d="M175.1 179.605H170.492V193.421H175.1V179.605Z" fill="black"/>
<path d="M138.234 280.921H82.9399V276.316H78.332V290.132H82.9399V285.526H138.234V290.132H142.842V276.316H138.234V280.921Z" fill="black"/>
<path d="M138.237 290.132H133.629V303.948H138.237V290.132Z" fill="black"/>
<path d="M133.627 303.947H129.02V317.763H133.627V303.947Z" fill="black"/>
<path d="M124.41 322.368H69.1157V317.763H64.5078V331.579H69.1157V326.974H124.41V331.579H129.018V317.763H124.41V322.368Z" fill="black"/>
<path d="M124.413 331.579H119.805V345.395H124.413V331.579Z" fill="black"/>
<path d="M179.706 165.79H175.098V179.605H179.706V165.79Z" fill="black"/>
<path d="M179.707 156.579H124.413V151.974H119.805V165.789H124.413V161.184H179.707V165.789H184.314V151.974H179.707V156.579Z" fill="black"/>
<path d="M188.92 138.158H184.312V151.974H188.92V138.158Z" fill="black"/>
<path d="M193.53 124.342H188.922V138.158H193.53V124.342Z" fill="black"/>
<path d="M193.531 115.132H138.237V110.526H133.629V124.342H138.237V119.737H193.531V124.342H198.139V110.526H193.531V115.132Z" fill="black"/>
<path d="M202.745 96.7104H198.137V110.526H202.745V96.7104Z" fill="black"/>
<path d="M207.354 82.8945H202.746V96.7103H207.354V82.8945Z" fill="black"/>
<path d="M207.351 73.6844H152.057V69.0791H147.449V82.8949H152.057V78.2896H207.351V82.8949H211.959V69.0791H207.351V73.6844Z" fill="black"/>
<path d="M216.569 55.2632H211.961V69.079H216.569V55.2632Z" fill="black"/>
<path d="M221.178 41.4473H216.57V55.2631H221.178V41.4473Z" fill="black"/>
<path d="M221.175 32.2371H165.881V27.6318H161.273V41.4476H165.881V36.8424H221.175V41.4476H225.783V27.6318H221.175V32.2371Z" fill="black"/>
<path d="M230.393 13.8159H225.785V27.6317H230.393V13.8159Z" fill="black"/>
<path d="M234.998 0H230.391V13.8158H234.998V0Z" fill="black"/>
</svg>
