<svg width="894" height="318" viewBox="0 0 894 318" fill="none" xmlns="http://www.w3.org/2000/svg">
<path d="M19.95 69.09V16.8H69.51C88.2 16.8 96.18 27.72 96.18 42.42C96.18 64.26 80.22 69.09 61.53 69.09H19.95ZM0 149.94H19.95V85.89H68.67C87.99 85.89 91.56 98.28 93.66 112.98C96.6 127.68 93.45 143.85 99.12 149.94H121.38C112.98 139.65 113.82 123.27 112.56 108.57C111.09 93.87 107.52 81.06 90.09 77.7V77.28C108.15 72.24 116.13 57.33 116.13 39.27C116.13 15.33 98.7 0 70.56 0H0V149.94Z" fill="black"/>
<path d="M176.94 130.2H157.2V110.46H176.94V130.2ZM236.16 149.94H176.94V130.2H236.16V149.94ZM157.2 110.46H137.25V39.48H157.2V110.46ZM236.16 130.2H256.11V110.46H236.16V130.2ZM256.11 110.46H275.85V39.48H256.11V110.46ZM236.16 19.74H256.11V39.48H236.16V19.74ZM176.94 0H236.16V19.74H176.94V0ZM176.94 19.74H157.2V39.48H176.94V19.74Z" fill="black"/>
<path d="M302.08 149.94H401.41V133.14H322.03V0H302.08V149.94Z" fill="black"/>
<path d="M418.77 149.94H518.1V133.14H438.72V0H418.77V149.94Z" fill="black"/>
<path d="M686.306 130.2V149.94H607.136V130.2H686.306ZM587.396 0H607.136V130.2H587.396V0ZM686.306 0H706.046V130.2H686.306V0Z" fill="black"/>
<path d="M824.734 0V19.74H745.564V74.97H824.734V94.71H745.564V149.94H725.824V0H824.734ZM824.734 19.74H844.474V74.97H824.734V19.74Z" fill="black"/>
<path d="M891.552 0H871.602V46.2L876.852 111.51H886.302L891.552 46.2V0ZM869.922 149.94H893.232V126.63H869.922V149.94Z" fill="black"/>
<path d="M19.95 237.09V184.8H69.51C88.2 184.8 96.18 195.72 96.18 210.42C96.18 232.26 80.22 237.09 61.53 237.09H19.95ZM0 317.94H19.95V253.89H68.67C87.99 253.89 91.56 266.28 93.66 280.98C96.6 295.68 93.45 311.85 99.12 317.94H121.38C112.98 307.65 113.82 291.27 112.56 276.57C111.09 261.87 107.52 249.06 90.09 245.7V245.28C108.15 240.24 116.13 225.33 116.13 207.27C116.13 183.33 98.7 168 70.56 168H0V317.94Z" fill="black"/>
<path d="M176.94 298.2H157.2V278.46H176.94V298.2ZM236.16 317.94H176.94V298.2H236.16V317.94ZM157.2 278.46H137.25V207.48H157.2V278.46ZM236.16 298.2H256.11V278.46H236.16V298.2ZM256.11 278.46H275.85V207.48H256.11V278.46ZM236.16 187.74H256.11V207.48H236.16V187.74ZM176.94 168H236.16V187.74H176.94V168ZM176.94 187.74H157.2V207.48H176.94V187.74Z" fill="black"/>
<path d="M302.08 317.94H401.41V301.14H322.03V168H302.08V317.94Z" fill="black"/>
<path d="M418.77 317.94H518.1V301.14H438.72V168H418.77V317.94Z" fill="black"/>
<path d="M686.306 298.2V317.94H607.136V298.2H686.306ZM587.396 168H607.136V298.2H587.396V168ZM686.306 168H706.046V298.2H686.306V168Z" fill="black"/>
<path d="M824.734 168V187.74H745.564V242.97H824.734V262.71H745.564V317.94H725.824V168H824.734ZM824.734 187.74H844.474V242.97H824.734V187.74Z" fill="black"/>
<path d="M891.552 168H871.602V214.2L876.852 279.51H886.302L891.552 214.2V168ZM869.922 317.94H893.232V294.63H869.922V317.94Z" fill="black"/>
</svg>
