<?xml version="1.0" encoding="utf-8"?>
<!-- Generator: Adobe Illustrator 26.0.1, SVG Export Plug-In . SVG Version: 6.00 Build 0)  -->
<svg version="1.1" id="Layer_1" xmlns="http://www.w3.org/2000/svg" xmlns:xlink="http://www.w3.org/1999/xlink" x="0px" y="0px"
	 viewBox="0 0 283.5 61.3" style="enable-background:new 0 0 283.5 61.3;" xml:space="preserve">
<style type="text/css">
	.st0{fill:#FFFFFF;}
</style>
<g>
	<path class="st0" d="M26.6,53.1L44,0h8.8L31.2,61.3h-9.5L0,0h8.9L26.6,53.1z"/>
	<path class="st0" d="M89.6,33.3v21.1h34.3v6.9H81.3V0h41.7V7H89.6v19.3h29.8v6.9H89.6z"/>
	<path class="st0" d="M156.8,7.5h7.4V54h-7.4V7.5z M193.7,0v7.5h-29.5V0H193.7z M164.2,61.3V54h29.5v7.4H164.2z M201.1,54h-7.4V39.2
		H179v-7.4h22.1V54z M201.1,7.5v7.4h-7.4V7.5H201.1z"/>
	<path class="st0" d="M283.5,61.3h-8.6L270.4,49h-30.8L235,61.3h-8.4L250.4,0h9.3L283.5,61.3z M254.8,7.4L242.2,42h25.6L255,7.4
		H254.8z"/>
</g>
</svg>
