<svg xmlns="http://www.w3.org/2000/svg" height="119.36" width="636.773"><g fill="#040606"><path d="M604.867 83.802h-48.574l24.491-67.397zM590.16.035h-18.253l-46.445 119.288h17.456l7.805-20.978h59.655l7.612 20.978h18.784L590.16.035M205.972 65.298h61.295V50.756h-61.295V14.578h65.755V.036H188.952v119.288h83.27V104.78h-66.25V65.298M55.99 102.954L18.783.035H0l46.613 119.288H64.865L111.313.035H93.855L55.99 102.955M360.381 102.308h17.052V17.051h-17.052v85.257M377.433-.001V17.05h56.839V-.001h-56.839M451.324 34.102V17.051h-17.052v17.051h17.052M434.272 119.36v-17.052h-56.839v17.053h56.839M451.324 73.89V56.837h-45.47v17.051h28.418v28.42h17.052v-28.42"/></g></svg>